<?xml version="1.0" encoding="UTF-8" standalone="no"?>
<svg
   width="512"
   height="512"
   viewBox="0 0 512 512"
   version="1.1"
   id="svg20"
   sodipodi:docname="1.svg"
   xml:space="preserve"
   inkscape:version="1.4.3 (0d15f75042, 2025-12-25)"
   xmlns:inkscape="http://www.inkscape.org/namespaces/inkscape"
   xmlns:sodipodi="http://sodipodi.sourceforge.net/DTD/sodipodi-0.dtd"
   xmlns="http://www.w3.org/2000/svg"
   xmlns:svg="http://www.w3.org/2000/svg"><sodipodi:namedview
     id="namedview20"
     pagecolor="#ffffff"
     bordercolor="#000000"
     borderopacity="0.25"
     inkscape:showpageshadow="2"
     inkscape:pageopacity="0.0"
     inkscape:pagecheckerboard="0"
     inkscape:deskcolor="#d1d1d1"
     inkscape:zoom="0.80930581"
     inkscape:cx="257.01039"
     inkscape:cy="216.2347"
     inkscape:window-width="1440"
     inkscape:window-height="830"
     inkscape:window-x="-6"
     inkscape:window-y="-6"
     inkscape:window-maximized="1"
     inkscape:current-layer="svg20" /><defs
     id="defs10"><mask
       id="key-mask"><rect
         width="512"
         height="512"
         fill="black"
         id="rect1" /><g
         fill="white"
         id="g10"><rect
           x="60"
           y="60"
           width="120"
           height="120"
           rx="16"
           id="rect2" /><rect
           x="196"
           y="60"
           width="120"
           height="120"
           rx="16"
           id="rect3" /><rect
           x="332"
           y="60"
           width="120"
           height="120"
           rx="16"
           id="rect4" /><rect
           x="60"
           y="196"
           width="120"
           height="120"
           rx="16"
           id="rect5" /><rect
           x="196"
           y="196"
           width="120"
           height="120"
           rx="16"
           id="rect6" /><rect
           x="332"
           y="196"
           width="120"
           height="120"
           rx="16"
           id="rect7" /><rect
           x="60"
           y="332"
           width="120"
           height="120"
           rx="16"
           id="rect8" /><rect
           x="196"
           y="332"
           width="120"
           height="120"
           rx="16"
           id="rect9" /><rect
           x="332"
           y="332"
           width="120"
           height="120"
           rx="16"
           id="rect10" /></g></mask></defs><path
     id="rect11"
     style="fill:#1c1b1f;stroke-width:1.14286"
     d="M 0,0 H 512 V 512 H 0 Z" /><path
     id="rect12"
     d="m 76,60 h 88 c 8.864,0 16,7.136 16,16 v 88 c 0,8.864 -7.136,16 -16,16 H 76 c -8.864,0 -16,-7.136 -16,-16 V 76 c 0,-8.864 7.136,-16 16,-16 z"
     style="fill:#2d2a45" /><path
     id="rect13"
     d="m 212,60 h 88 c 8.864,0 16,7.136 16,16 v 88 c 0,8.864 -7.136,16 -16,16 h -88 c -8.864,0 -16,-7.136 -16,-16 V 76 c 0,-8.864 7.136,-16 16,-16 z"
     style="fill:#2d2a45" /><path
     id="rect14"
     d="m 348,60 h 88 c 8.864,0 16,7.136 16,16 v 88 c 0,8.864 -7.136,16 -16,16 h -88 c -8.864,0 -16,-7.136 -16,-16 V 76 c 0,-8.864 7.136,-16 16,-16 z"
     style="fill:#2d2a45" /><path
     id="rect15"
     d="m 76,196 h 88 c 8.864,0 16,7.136 16,16 v 88 c 0,8.864 -7.136,16 -16,16 H 76 c -8.864,0 -16,-7.136 -16,-16 v -88 c 0,-8.864 7.136,-16 16,-16 z"
     style="fill:#2d2a45" /><path
     id="rect16"
     d="m 212,196 h 88 c 8.864,0 16,7.136 16,16 v 88 c 0,8.864 -7.136,16 -16,16 h -88 c -8.864,0 -16,-7.136 -16,-16 v -88 c 0,-8.864 7.136,-16 16,-16 z"
     style="fill:#2d2a45" /><path
     id="rect17"
     d="m 348,196 h 88 c 8.864,0 16,7.136 16,16 v 88 c 0,8.864 -7.136,16 -16,16 h -88 c -8.864,0 -16,-7.136 -16,-16 v -88 c 0,-8.864 7.136,-16 16,-16 z"
     style="fill:#2d2a45" /><path
     id="rect18"
     d="m 76,332 h 88 c 8.864,0 16,7.136 16,16 v 88 c 0,8.864 -7.136,16 -16,16 H 76 c -8.864,0 -16,-7.136 -16,-16 v -88 c 0,-8.864 7.136,-16 16,-16 z"
     style="fill:#2d2a45" /><path
     id="rect19"
     d="m 212,332 h 88 c 8.864,0 16,7.136 16,16 v 88 c 0,8.864 -7.136,16 -16,16 h -88 c -8.864,0 -16,-7.136 -16,-16 v -88 c 0,-8.864 7.136,-16 16,-16 z"
     style="fill:#2d2a45" /><path
     id="rect20"
     d="m 348,332 h 88 c 8.864,0 16,7.136 16,16 v 88 c 0,8.864 -7.136,16 -16,16 h -88 c -8.864,0 -16,-7.136 -16,-16 v -88 c 0,-8.864 7.136,-16 16,-16 z"
     style="fill:#2d2a45" /><path
     d="m 281.20368,90.323152 c 7.57217,0 13.7676,6.193627 13.7676,18.813918 0,15.83364 -7.57219,30.51998 -25.47007,48.41741 -3.67136,3.67047 -9.1784,8.94759 -14.45598,13.53681 -1.60622,1.37809 -2.52405,1.14728 -2.98298,-1.83525 -0.91784,-5.96506 -1.37676,-13.7676 -1.37676,-21.11076 0,-35.79487 16.52113,-57.822128 30.51819,-57.822128 z m -9.17841,192.746408 c -0.45892,-2.75397 -0.22947,-3.4419 2.52405,-3.21334 18.58628,1.60667 33.96009,17.20951 33.96009,37.40153 0,14.45554 -8.71948,26.15934 -21.56923,32.58379 -2.75352,1.37585 -3.21245,1.37585 -3.67137,-1.37588 z m -15.83274,-36.48504 c 0.68838,4.36064 0.68838,4.12984 -3.44189,5.50794 -20.19249,6.88379 -33.27172,25.00979 -33.27172,44.5139 0,20.65139 10.78462,35.33773 26.38791,40.61487 1.83568,0.68793 4.5892,1.37586 6.19542,1.37586 1.83567,0 2.75352,-1.1473 2.75352,-2.52317 0,-1.60666 -1.83568,-2.2946 -3.4419,-2.98253 -9.63733,-4.12982 -16.52112,-13.9984 -16.52112,-24.55266 0,-13.07967 8.94894,-22.94601 22.946,-26.84728 3.67137,-0.91649 4.13028,-0.68792 4.5892,1.83524 l 11.47299,68.38088 c 0.45893,2.52315 0.22947,2.52315 -3.21243,3.21109 -3.67135,0.68793 -8.26056,1.14731 -12.84976,1.14731 -40.1555,0 -66.08448,-22.25809 -66.08448,-54.15168 0,-13.53904 2.29459,-31.66504 21.33978,-53.23517 13.76761,-15.37427 24.32275,-23.86474 35.10737,-32.58376 2.29461,-1.83524 2.75352,-1.60667 3.21245,0.91872 z m 3.4419,-35.10694 c -0.45892,-2.75396 0,-2.98253 1.37676,-4.36063 3.67137,-3.44191 8.49002,-8.25966 12.84975,-13.07967 19.27466,-21.10853 30.74766,-48.41517 30.74766,-74.3437 0,-19.96347 -5.50705,-39.696132 -14.91491,-53.464629 -3.44189,-5.04812 -9.40786,-11.473001 -11.93192,-11.473001 -3.21245,0 -10.3257,5.96596 -14.9149,11.014081 -16.98004,18.816617 -22.48708,47.499109 -22.48708,71.361609 0,13.30824 1.60622,28.22314 3.21244,37.63234 0.45892,2.75398 0.68838,3.2111 -2.06514,5.50571 -14.68543,12.16317 -30.51818,26.15933 -42.45011,40.84567 -15.83273,19.73266 -25.69952,41.072 -25.69952,65.62467 0,39.92693 27.30574,77.78783 83.52345,77.78783 5.27758,0 11.24354,-0.45936 15.83274,-1.3781 2.52406,-0.45937 2.98298,-0.68794 3.44191,2.06603 2.75351,15.37428 6.19541,35.33551 6.19541,46.12057 0,33.95963 -22.946,38.09171 -36.48414,38.09171 -12.39085,0 -18.3568,-3.67269 -18.3568,-6.65524 0,-1.60667 2.06515,-2.2946 7.34272,-3.90126 7.11326,-2.0638 15.37382,-8.25966 15.37382,-21.56791 0,-12.6203 -8.03111,-23.40536 -22.02816,-23.40536 -15.37383,0 -24.55223,12.16093 -24.55223,26.38789 0,14.9149 8.94895,37.40155 43.59741,37.40155 15.37383,0 45.20362,-6.8838 45.20362,-45.89201 0,-13.07967 -4.13029,-34.87836 -6.65434,-49.10534 -0.45893,-2.75172 -0.22946,-2.52316 2.98298,-3.89903 23.17546,-9.17839 38.54929,-28.6825 38.54929,-54.61327 0,-29.37044 -21.56924,-55.29897 -55.29987,-55.29897 -5.96596,0 -5.96596,0 -6.65434,-4.12982 z"
     fill="#ffffff"
     fill-opacity="1"
     id="path1"
     style="stroke-width:0.224082" /></svg>
